<?xml version="1.0"?>
<svg xmlns="http://www.w3.org/2000/svg" xmlns:xlink="http://www.w3.org/1999/xlink" xmlns:svgjs="http://svgjs.com/svgjs" version="1.1" width="512" height="512" x="0" y="0" viewBox="0 0 512 512" style="enable-background:new 0 0 512 512" xml:space="preserve" class=""><rect width="512" height="512" fill="#f5f5f5" shape="square"/><g transform="matrix(0.45,0,0,0.45,140.79999160766602,140.80000839233395)"><linearGradient xmlns="http://www.w3.org/2000/svg" id="SVGID_1_" gradientUnits="userSpaceOnUse" x1="256" x2="256" y1="446.8" y2="61"><stop stop-opacity="1" stop-color="#fdfdff" offset="0.007722007722007722"/><stop stop-opacity="1" stop-color="#3f51b5" offset="1"/></linearGradient><linearGradient xmlns="http://www.w3.org/2000/svg" id="SVGID_2_" gradientUnits="userSpaceOnUse" x1="253.9" x2="253.9" y1="451" y2="151"><stop stop-opacity="1" stop-color="#3f51b5" offset="0"/><stop stop-opacity="1" stop-color="#ffffff" offset="1"/></linearGradient><g xmlns="http://www.w3.org/2000/svg"><g><g><path d="m497 61h-482c-8.401 0-15 6.599-15 15v345l196-135 120 150 60-60 131.8 70.8c2.401-3 4.2-6.6 4.2-10.8v-360c0-8.401-6.599-15-15-15z" fill="url(#SVGID_1_)" data-original="url(#SVGID_1_)" style=""/></g></g><g><g><path d="m346 241c24.814 0 45-20.186 45-45s-20.186-45-45-45-45 20.186-45 45 20.186 45 45 45zm40.607 85.606c-5.858-5.858-15.355-5.858-21.213 0l-49.394 49.394-109.531-136.914c-5.585-6.981-15.998-7.558-22.32-1.236l-184.149 183.15v15c0 8.399 6.599 15 15 15h482c4.2 0 7.8-1.8 10.8-4.2z" fill="url(#SVGID_2_)" data-original="url(#SVGID_2_)" style=""/></g></g></g></g></svg>
