<?xml version="1.0" encoding="UTF-8"?>
<svg xmlns="http://www.w3.org/2000/svg" xmlns:xlink="http://www.w3.org/1999/xlink" width="480pt" height="480pt" viewBox="0 0 480 480" version="1.1">
<g id="surface4592248">
<path style=" stroke:none;fill-rule:nonzero;fill:#ffffff;fill-opacity:1;" d="M 250.898438 204.78125 L 250.898438 281.199219 L 359.800781 281.199219 C 345.558594 327.5 306.859375 360.640625 250.898438 360.640625 C 184.261719 360.640625 130.238281 306.621094 130.238281 240 C 130.238281 173.378906 184.261719 119.359375 250.898438 119.359375 C 280.859375 119.359375 308.21875 130.339844 329.320312 148.421875 L 385.601562 92.140625 C 350.058594 59.761719 302.78125 40 250.898438 40 C 140.421875 40 50.859375 129.539062 50.859375 240 C 50.859375 350.460938 140.421875 440 250.898438 440 C 418.820312 440 455.878906 283 439.421875 205.039062 Z M 250.898438 204.78125 "/>
</g>
</svg>
